<svg width="937" height="79" viewBox="0 0 937 79" fill="none" xmlns="http://www.w3.org/2000/svg">
<path d="M245.16 18.4199L213.47 39.6599C213.239 39.812 213.049 40.0191 212.918 40.2626C212.786 40.506 212.718 40.7783 212.718 41.0549C212.718 41.3315 212.786 41.6038 212.918 41.8473C213.049 42.0908 213.239 42.2979 213.47 42.4499L244.7 63.1899" stroke="white" stroke-width="5" stroke-miterlimit="10" stroke-linecap="round"/>
<path d="M256.15 6.77002H279.14H303.54" stroke="white" stroke-width="5" stroke-miterlimit="10" stroke-linecap="round"/>
<path d="M279.64 71.61V6.77002" stroke="white" stroke-width="5" stroke-miterlimit="10" stroke-linecap="round"/>
<path d="M319.12 3.14001V71.21" stroke="white" stroke-width="5" stroke-miterlimit="10" stroke-linecap="round"/>
<path d="M335.83 6.77002H358.83H383.23" stroke="white" stroke-width="5" stroke-miterlimit="10" stroke-linecap="round"/>
<path d="M359.33 71.61V6.77002" stroke="white" stroke-width="5" stroke-miterlimit="10" stroke-linecap="round"/>
<path d="M395.96 6.02002L396.87 66.97H436.65" stroke="white" stroke-width="5" stroke-miterlimit="10" stroke-linecap="round"/>
<path d="M447.38 6.77002H488.59" stroke="white" stroke-width="5" stroke-miterlimit="10" stroke-linecap="round"/>
<path d="M447.38 36.49H488.22" stroke="white" stroke-width="5" stroke-miterlimit="10" stroke-linecap="round"/>
<path d="M447.02 66.97H488.59" stroke="white" stroke-width="5" stroke-miterlimit="10" stroke-linecap="round"/>
<path d="M642.91 6.77002H682.85" stroke="white" stroke-width="5" stroke-miterlimit="10" stroke-linecap="round"/>
<path d="M642.91 36.49H683.75" stroke="white" stroke-width="5" stroke-miterlimit="10" stroke-linecap="round"/>
<path d="M642.91 66.97H683.75" stroke="white" stroke-width="5" stroke-miterlimit="10" stroke-linecap="round"/>
<path d="M545.15 6.77002L503.8 6.02002V37.53V71.61" stroke="white" stroke-width="5" stroke-miterlimit="10" stroke-linecap="round"/>
<path d="M535.87 36.49H503.8" stroke="white" stroke-width="5" stroke-miterlimit="10" stroke-linecap="round"/>
<path d="M561.13 3.14001V70.75" stroke="white" stroke-width="5" stroke-miterlimit="10" stroke-linecap="round"/>
<path d="M768.5 3.14001V70.75" stroke="white" stroke-width="5" stroke-miterlimit="10" stroke-linecap="round"/>
<path d="M577.47 4.04993L627.53 69.6899" stroke="white" stroke-width="5" stroke-miterlimit="10" stroke-linecap="round"/>
<path d="M628.29 4.04993L576.56 70.7499" stroke="white" stroke-width="5" stroke-miterlimit="10" stroke-linecap="round"/>
<path d="M891.32 3.14001L860.77 76.35" stroke="white" stroke-width="5" stroke-miterlimit="10" stroke-linecap="round"/>
<path d="M901.31 18.87L933.19 38.34C933.431 38.4935 933.63 38.7055 933.768 38.9563C933.906 39.2072 933.978 39.4888 933.978 39.775C933.978 40.0612 933.906 40.3428 933.768 40.5937C933.63 40.8445 933.431 41.0565 933.19 41.21L901.31 61.83" stroke="white" stroke-width="5" stroke-miterlimit="10" stroke-linecap="round"/>
<path d="M816.45 66.37C832.908 66.37 846.25 53.0281 846.25 36.57C846.25 20.1119 832.908 6.77002 816.45 6.77002C799.992 6.77002 786.65 20.1119 786.65 36.57C786.65 53.0281 799.992 66.37 816.45 66.37Z" stroke="white" stroke-width="5" stroke-miterlimit="10" stroke-linecap="round"/>
<path d="M749.35 69.96C752.056 69.96 754.25 67.7662 754.25 65.06C754.25 62.3538 752.056 60.16 749.35 60.16C746.643 60.16 744.45 62.3538 744.45 65.06C744.45 67.7662 746.643 69.96 749.35 69.96Z" fill="white"/>
<path d="M698.06 68.64V6.18003C698.06 5.89625 698.172 5.62409 698.373 5.42343C698.574 5.22277 698.846 5.11003 699.13 5.11003H717.13C719.554 5.09634 721.912 5.90344 723.82 7.40004C727.1 9.99004 731.56 14.78 731.69 21.65C731.94 32.54 719 38.59 719 38.59L736.14 67.22" stroke="white" stroke-width="5" stroke-miterlimit="10" stroke-linecap="round"/>
<path d="M698.31 38.59H719.03" stroke="white" stroke-width="5" stroke-miterlimit="10" stroke-linecap="round"/>
<path d="M57.6199 33.8H40.3998C35.9798 33.8 33.3998 35.22 32.2098 37.64C31.7581 38.48 31.5427 39.4268 31.5867 40.3796C31.6308 41.3323 31.9325 42.2553 32.4598 43.05C33.1046 43.9963 33.9757 44.7664 34.9939 45.2904C36.0121 45.8143 37.1451 46.0754 38.2898 46.05H100.83C104.502 46.0492 108.074 47.2503 111 49.47C117.12 54.07 124.85 62.92 113 73.1C109.555 76.0473 105.163 77.6523 100.63 77.62L33.9098 77.19C30.3175 77.1747 26.7729 76.3654 23.5298 74.82C15.2998 70.82 1.39985 61.03 0.769847 40.15C0.339847 27.51 5.46985 19 11.4998 13.36C18.5631 6.9019 27.8096 3.35764 37.3798 3.44H58.2798C60.5057 3.42157 62.7131 3.8462 64.7732 4.68916C66.8334 5.53212 68.7053 6.77656 70.2798 8.35C74.2798 12.48 77.9598 18.86 72.8198 26.18C71.0819 28.5748 68.794 30.517 66.1488 31.8431C63.5036 33.1692 60.5786 33.8403 57.6199 33.8Z" fill="#ED8B00"/>
<path d="M103.2 34.14C112.009 34.14 119.15 26.9989 119.15 18.19C119.15 9.38105 112.009 2.23999 103.2 2.23999C94.3911 2.23999 87.25 9.38105 87.25 18.19C87.25 26.9989 94.3911 34.14 103.2 34.14Z" fill="#F6BE00"/>
<path d="M154.55 2.22998V77.66" stroke="#ED8B00" stroke-miterlimit="10"/>
</svg>
