<svg id="Layer_1" data-name="Layer 1" xmlns="http://www.w3.org/2000/svg" viewBox="0 0 983.5 131.63">
  <defs>
    <style>
      .cls-1, .cls-4, .cls-5 {
        fill: none;
      }

      .cls-1 {
        stroke: #000;
        stroke-linecap: round;
        stroke-width: 5px;
      }

      .cls-1, .cls-4 {
        stroke-miterlimit: 10;
      }

      .cls-2 {
        fill: #ed8b00;
      }

      .cls-3 {
        fill: #f6be00;
      }

      .cls-4 {
        stroke: #ed8b00;
      }
    </style>
  </defs>
  <g>
    <path class="cls-1" d="M263.16,44.42,231.47,65.66a1.67,1.67,0,0,0,0,2.79L262.7,89.19"/>
    <polyline class="cls-1" points="274.15 32.77 297.14 32.77 321.54 32.77"/>
    <line class="cls-1" x1="297.64" y1="97.61" x2="297.64" y2="32.77"/>
    <line class="cls-1" x1="337.12" y1="29.14" x2="337.12" y2="97.21"/>
    <polyline class="cls-1" points="353.83 32.77 376.83 32.77 401.23 32.77"/>
    <line class="cls-1" x1="377.33" y1="97.61" x2="377.33" y2="32.77"/>
    <polyline class="cls-1" points="413.96 32.02 414.87 92.97 454.65 92.97"/>
    <line class="cls-1" x1="465.38" y1="32.77" x2="506.59" y2="32.77"/>
    <line class="cls-1" x1="465.38" y1="62.49" x2="506.22" y2="62.49"/>
    <line class="cls-1" x1="465.02" y1="92.97" x2="506.59" y2="92.97"/>
    <line class="cls-1" x1="660.91" y1="32.77" x2="700.85" y2="32.77"/>
    <line class="cls-1" x1="660.91" y1="62.49" x2="701.75" y2="62.49"/>
    <line class="cls-1" x1="660.91" y1="92.97" x2="701.75" y2="92.97"/>
    <polyline class="cls-1" points="563.15 32.77 521.8 32.02 521.8 63.53 521.8 97.61"/>
    <line class="cls-1" x1="553.87" y1="62.49" x2="521.8" y2="62.49"/>
    <line class="cls-1" x1="579.13" y1="29.14" x2="579.13" y2="96.75"/>
    <line class="cls-1" x1="786.5" y1="29.14" x2="786.5" y2="96.75"/>
    <line class="cls-1" x1="595.47" y1="30.05" x2="645.53" y2="95.69"/>
    <line class="cls-1" x1="646.29" y1="30.05" x2="594.56" y2="96.75"/>
    <line class="cls-1" x1="909.32" y1="29.14" x2="878.77" y2="102.35"/>
    <path class="cls-1" d="M919.31,44.87l31.88,19.47a1.7,1.7,0,0,1,0,2.87L919.31,87.83"/>
    <circle class="cls-1" cx="834.45" cy="62.57" r="29.8"/>
    <circle cx="767.35" cy="91.06" r="4.9"/>
    <path class="cls-1" d="M716.06,94.64V32.18a1.07,1.07,0,0,1,1.07-1.07h18a10.74,10.74,0,0,1,6.69,2.29c3.28,2.59,7.74,7.38,7.87,14.25C749.94,58.54,737,64.59,737,64.59l17.14,28.63"/>
    <line class="cls-1" x1="716.31" y1="64.59" x2="737.03" y2="64.59"/>
    <path class="cls-2" d="M75.62,59.8H58.4c-4.42,0-7,1.42-8.19,3.84a5.27,5.27,0,0,0,.25,5.41,6.87,6.87,0,0,0,5.83,3h62.54A16.82,16.82,0,0,1,129,75.47c6.12,4.6,13.85,13.45,2,23.63a18.82,18.82,0,0,1-12.37,4.52l-66.72-.43a24.37,24.37,0,0,1-10.38-2.37c-8.23-4-22.13-13.79-22.76-34.67C18.34,53.51,23.47,45,29.5,39.36a37.87,37.87,0,0,1,25.88-9.92h20.9a16.78,16.78,0,0,1,12,4.91c4,4.13,7.68,10.51,2.54,17.83A18.47,18.47,0,0,1,75.62,59.8Z"/>
    <circle class="cls-3" cx="121.2" cy="44.19" r="15.95"/>
    <line class="cls-4" x1="172.55" y1="28.23" x2="172.55" y2="103.66"/>
    <polyline class="cls-5" points="262.7 44.42 228.67 66.69 262.7 89.19"/>
    <line class="cls-5" x1="271.63" y1="32.77" x2="323.66" y2="32.02"/>
  </g>
</svg>
